<?xml version="1.0" encoding="UTF-8" standalone="no"?>
<!-- Created with Inkscape (http://www.inkscape.org/) -->

<svg
   xmlns:dc="http://purl.org/dc/elements/1.1/"
   xmlns:cc="http://creativecommons.org/ns#"
   xmlns:rdf="http://www.w3.org/1999/02/22-rdf-syntax-ns#"
   xmlns:svg="http://www.w3.org/2000/svg"
   xmlns="http://www.w3.org/2000/svg"
   xmlns:sodipodi="http://sodipodi.sourceforge.net/DTD/sodipodi-0.dtd"
   xmlns:inkscape="http://www.inkscape.org/namespaces/inkscape"
   width="66.523293mm"
   height="46.730507mm"
   viewBox="0 0 235.71245 165.58053"
   id="svg2"
   version="1.1"
   inkscape:version="0.92.2 5c3e80d, 2017-08-06"
   sodipodi:docname="screenprint_v1 copy.svg"
   inkscape:export-filename="/Users/Jess/Desktop/pierogiLines_step1_screen1a.png"
   inkscape:export-xdpi="90"
   inkscape:export-ydpi="90">
  <title
     id="title831">Pierogi</title>
  <defs
     id="defs4" />
  <sodipodi:namedview
     id="base"
     pagecolor="#ffffff"
     bordercolor="#666666"
     borderopacity="1.0"
     inkscape:pageopacity="0.0"
     inkscape:pageshadow="2"
     inkscape:zoom="1.4"
     inkscape:cx="68.856126"
     inkscape:cy="172.3449"
     inkscape:document-units="px"
     inkscape:current-layer="layer1"
     showgrid="false"
     inkscape:window-width="1440"
     inkscape:window-height="878"
     inkscape:window-x="0"
     inkscape:window-y="0"
     inkscape:window-maximized="1"
     fit-margin-top="0"
     fit-margin-left="0"
     fit-margin-right="0"
     fit-margin-bottom="0"
     inkscape:pagecheckerboard="false" />
  <metadata
     id="metadata7">
    <rdf:RDF>
      <cc:Work
         rdf:about="">
        <dc:format>image/svg+xml</dc:format>
        <dc:type
           rdf:resource="http://purl.org/dc/dcmitype/StillImage" />
        <dc:title>Pierogi</dc:title>
        <cc:license
           rdf:resource="http://creativecommons.org/publicdomain/zero/1.0/" />
        <dc:date>2018</dc:date>
        <dc:creator>
          <cc:Agent>
            <dc:title>Cyanide Cupcake</dc:title>
          </cc:Agent>
        </dc:creator>
        <dc:subject>
          <rdf:Bag>
            <rdf:li>pierogi</rdf:li>
            <rdf:li>clipart</rdf:li>
            <rdf:li>pierogie</rdf:li>
          </rdf:Bag>
        </dc:subject>
        <dc:rights>
          <cc:Agent>
            <dc:title>CC0</dc:title>
          </cc:Agent>
        </dc:rights>
      </cc:Work>
      <cc:License
         rdf:about="http://creativecommons.org/publicdomain/zero/1.0/">
        <cc:permits
           rdf:resource="http://creativecommons.org/ns#Reproduction" />
        <cc:permits
           rdf:resource="http://creativecommons.org/ns#Distribution" />
        <cc:permits
           rdf:resource="http://creativecommons.org/ns#DerivativeWorks" />
      </cc:License>
    </rdf:RDF>
  </metadata>
  <g
     inkscape:groupmode="layer"
     id="layer2"
     inkscape:label="- pierogiColour"
     style="display:inline"
     transform="translate(-104.22443,-837.40518)">
    <path
       style="fill:#ffcf45;fill-opacity:1"
       d="m 122.09035,1000.6195 c -3.63958,-1.40013 -7.00021,-3.65907 -7.83013,-5.26319 -1.92218,-3.71535 -8.97609,-30.22784 -9.81455,-36.88856 -0.53757,-4.2704 -0.17375,-5.65765 1.96377,-7.48785 1.44298,-1.23552 2.62359,-2.839 2.62359,-3.56331 0,-0.72429 1.9747,-2.38035 4.38822,-3.68012 4.73636,-2.55069 5.11283,-3.67992 3.03252,-9.09593 -1.31172,-3.41498 -1.73337,-15.29458 -0.77055,-21.70925 2.17113,-14.46483 12.5185,-21.21065 31.08695,-20.26667 7.52106,0.38237 8.91661,-1.41061 10.57417,-13.58527 1.86444,-13.69418 2.86681,-16.11835 9.67071,-23.38808 7.79994,-8.33395 11.05335,-9.67237 21.4023,-8.80475 10.30356,0.86381 15.26971,3.72483 21.60346,12.44586 2.37886,3.27549 5.17541,5.95544 6.21454,5.95544 1.03914,0 4.84842,-3.18359 8.46507,-7.07464 3.61666,-3.89107 7.13993,-7.56945 7.82951,-8.17418 9.45521,-8.29197 14.56176,-10.47397 22.13502,-9.45818 7.14381,0.95818 10.77849,3.89119 14.2633,11.50974 3.0369,6.63935 3.20396,6.77223 10.30049,8.19353 13.06653,2.61695 20.84379,8.19503 25.95124,18.61295 1.2324,2.51379 3.02152,6.06807 3.97582,7.89841 0.9543,1.83034 1.73509,5.04119 1.73509,7.13522 0,2.09403 0.5734,4.16171 1.27423,4.59484 0.70082,0.43313 0.97173,1.27696 0.60203,1.87515 -0.36971,0.5982 3.61107,5.66773 8.84616,11.26563 8.63349,9.23183 9.49076,10.60873 9.22162,14.81137 -0.1632,2.54836 -1.14454,6.04388 -2.18075,7.76782 -1.95813,3.25773 -7.73837,8.77223 -9.19776,8.7749 -0.46078,8.4e-4 -1.73023,0.34398 -2.82099,0.76256 -3.94439,1.51359 -1.90049,-2.58177 3.97222,-7.95916 3.60837,-3.04613 -6.36844,-1.05306 -9.08987,0.82534 0,0.9772 -1.1284,1.86953 -2.50755,1.98293 -2.58573,0.21261 -13.04601,1.75965 -16.72593,2.4737 -1.14439,0.22207 -5.18379,1.28901 -8.97646,2.371 -3.79267,1.082 -8.30626,2.21636 -10.03021,2.52081 -1.72394,0.30445 -7.22488,1.69822 -12.22431,3.09728 -4.99943,1.39906 -9.08987,2.2285 -9.08987,1.84322 0,-0.3853 -0.8463,0.001 -1.88066,0.86028 -1.03437,0.85844 -1.88067,1.23465 -1.88067,0.83601 0,-0.39862 -2.29327,0.0844 -5.09616,1.07325 -2.80289,0.98891 -5.48283,1.71907 -5.95543,1.62258 -0.4726,-0.0965 -2.48774,0.49515 -4.47807,1.31475 -1.99035,0.81961 -4.52924,1.67077 -5.64199,1.89148 -1.11277,0.22072 -3.60374,1.0488 -5.53554,1.84018 -1.93178,0.7914 -5.18421,1.73344 -7.22761,2.09343 -2.04341,0.36 -6.10484,1.44384 -9.02542,2.40853 -2.92058,0.96468 -8.97743,2.6857 -13.45968,3.82448 -4.48225,1.13878 -12.66313,3.22138 -18.17975,4.628 -12.39364,3.16012 -29.66094,8.57295 -31.34439,9.82563 -0.68957,0.51312 -2.66427,1.34595 -4.38821,1.85073 -6.21734,1.82047 -18.84497,8.34295 -18.19335,9.3973 0.36653,0.59306 3.15838,2.02999 6.20412,3.19317 3.73768,1.42743 5.32001,2.68214 4.86799,3.86014 -0.82942,2.1614 -0.87097,2.1574 -8.65828,-0.8384 z"
       id="path4252"
       inkscape:connector-curvature="0"
       sodipodi:nodetypes="cssssssssssssssssssssssssssscccscsssscsccsscssssssssccc" />
  </g>
  <g
     inkscape:label="pierogiLines"
     inkscape:groupmode="layer"
     id="layer1"
     style="display:inline"
     transform="translate(-104.22443,-837.40518)">
    <path
       style="fill:#000000;fill-opacity:1;stroke:none;stroke-opacity:1"
       d="m 272.03809,839.69714 c 2.19094,1.82713 4.7205,5.92818 9.96912,16.16241 0.10883,0.21226 2.87693,0.68006 6.15114,1.03954 7.7075,0.84624 11.16948,2.21461 16.73232,6.61364 5.98389,4.73191 9.94759,12.94019 11.17848,23.14915 0.9897,8.20784 1.09353,8.3853 10.46759,17.90103 5.20734,5.28606 10.3704,11.40968 11.47344,13.60806 2.51816,5.01907 2.57495,10.86771 0.12909,13.30974 -2.20905,3.4044 -8.82895,9.25918 -13.01466,9.54548 -3.00065,0 -1.08728,-3.81136 4.00461,-7.97732 5.26625,-4.30857 5.67704,-5.39858 4.79317,-12.71678 -0.0888,-0.73452 -4.4054,-5.79273 -9.59273,-11.24048 -10.23292,-10.74688 -11.88173,-13.54592 -12.45526,-21.14548 -0.49448,-6.55143 -3.33901,-12.70163 -8.40587,-18.17452 -4.73914,-5.11903 -9.42536,-7.42537 -15.11116,-7.43705 -5.86556,-0.0125 -10.68413,-3.81046 -14.05841,-11.08207 -3.55091,-7.65244 -6.59358,-9.17524 -15.51832,-7.76663 -6.97999,1.10167 -8.37135,2.04871 -19.73184,13.43103 -12.55896,12.58295 -15.90184,13.12852 -22.24612,3.63068 -4.81118,-7.20256 -9.67928,-10.80423 -15.6917,-11.6094 -10.88089,-1.45716 -18.70222,2.83414 -24.09594,13.22066 -2.65752,5.1178 -3.63384,8.3723 -5.48129,18.27366 -0.94705,5.07592 -4.85921,11.75739 -7.64025,13.04866 -1.58025,0.73379 -7.20927,1.33626 -12.50892,1.33883 -11.46757,0.005 -16.19344,2.28137 -19.59361,9.4357 -1.99956,4.20713 -2.09162,5.80197 -0.81946,14.19806 0.7883,5.20221 1.74499,10.86365 2.12601,12.58097 0.77105,3.47488 -3.41582,10.68323 -7.54901,12.99666 -7.99945,4.47757 -8.5765,10.57973 -2.77849,29.38179 1.15058,3.73101 2.092,8.29889 2.092,10.15086 0,3.64596 2.85066,6.87493 4.9344,5.58913 0.75015,-0.46286 1.00034,-0.0398 0.59705,1.00966 -0.48886,1.27198 0.90339,2.33825 4.70523,3.60353 6.7029,2.23081 7.4044,5.53406 1.04136,4.90441 -4.86284,-0.48123 -10.05379,-2.83564 -12.35455,-5.60363 -1.55863,-1.875 -2.37232,-4.70069 -3.36578,-11.68823 -0.31172,-2.19163 -1.19523,-5.56378 -1.96353,-7.49365 -0.7683,-1.92988 -2.3802,-7.22741 -3.58218,-11.77227 -1.86896,-7.06664 -1.94676,-8.8302 -0.53726,-12.17719 0.90652,-2.1526 2.23835,-3.91381 2.95949,-3.91381 2.59553,-3.09913 5.03775,-6.01852 7.87849,-7.85088 4.07641,-2.60495 4.24616,-4.78786 1.44591,-18.58645 -1.8537,-9.13393 -1.84344,-10.24403 0.14485,-15.765 3.66637,-10.17978 13.33364,-15.21894 27.73755,-14.45835 7.2947,0.38519 7.89876,0.20107 10.27608,-3.13233 1.38916,-1.94786 2.8661,-6.0115 3.28189,-9.03032 1.86333,-13.52719 8.66231,-25.38047 17.53651,-30.573 4.95567,-2.89968 6.56307,-3.20974 13.6615,-2.63527 9.01056,0.72919 14.92854,4.22722 19.41561,11.47628 4.09705,6.61872 5.40649,7.24581 9.85304,4.71867 2.14239,-1.2176 3.8989,-2.63548 3.90327,-3.15083 0.0175,-2.11189 13.93208,-14.5314 19.05373,-17.00689 6.94809,-3.35828 16.73431,-3.51561 20.55341,-0.33046 z m -13.95595,43.72418 c 10.27895,3.70479 13.4616,5.78847 22.90709,14.99747 8.36797,8.15837 12.58023,14.46089 10.83161,16.20674 -0.40191,0.40131 -2.52855,-1.46873 -4.72574,-4.15566 -10.17189,-12.4385 -22.56323,-21.52885 -33.20983,-24.36291 -6.0228,-1.60322 -19.90021,-0.96569 -41.72053,1.91661 -18.93438,2.50107 -27.49648,11.36834 -38.20838,21.24937 -4.55556,4.2022 -6.88763,10.30571 -10.31667,15.46839 -0.33294,0.50127 -0.68217,0.99224 -0.99596,1.50572 -2.26287,3.70284 -3.42157,5.33402 -6.38631,11.34456 -4.81969,9.77157 -7.62844,13.3249 -7.62844,9.6508 0,-2.55439 5.8359,-14.67907 9.63912,-21.57782 0.47,-0.85254 1.08298,-1.61805 1.61892,-2.43076 2.62423,-3.97943 5.45913,-7.83193 7.81813,-11.9741 0.35074,-0.61587 0.5921,-1.28956 0.93816,-1.90808 0.66729,-1.19267 0.98508,-2.38046 2.18907,-3.46665 1.20398,-1.08617 3.59631,-3.61806 5.31629,-5.62639 8.7874,-10.26063 19.94898,-14.57844 44.79572,-17.32894 21.56438,-2.38716 29.43975,-2.2829 37.13775,0.49165 z m 55.04815,47.59904 c -0.43856,0.70834 0.0651,0.91712 1.17985,0.48977 3.06831,-1.17562 8.19972,0.5514 7.44831,2.50677 -0.40241,1.04675 -3.65373,2.03637 -8.39936,2.55653 -4.25867,0.46677 -9.71318,1.34012 -12.12116,1.94076 -2.40797,0.60064 -9.44424,2.29815 -15.63615,3.77223 -6.19193,1.47409 -12.10239,2.99565 -13.13437,3.38127 -1.032,0.3856 -2.72069,0.81114 -3.75269,0.94561 -1.03198,0.13448 -5.25374,1.23848 -9.38169,2.45329 -4.12794,1.21484 -8.35196,2.37293 -9.38657,2.57354 -1.03474,0.2006 -4.41216,1.05073 -7.50536,1.88917 -3.09334,0.83842 -6.18704,1.61566 -6.87503,1.72719 -0.68799,0.11153 -1.8592,0.58287 -2.60273,1.04741 -2.15667,1.34744 -11.72387,4.38487 -20.53878,6.5207 -8.64355,2.0943 -9.50366,2.32494 -16.12702,4.32473 -2.33391,0.70469 -4.72624,0.98334 -5.31628,0.61925 -0.59006,-0.3641 -1.07277,-0.18641 -1.07277,0.39487 0,0.58129 -1.26653,1.14763 -2.81451,1.25853 -2.86954,0.20558 -12.55559,2.50041 -15.94889,3.77867 -1.03198,0.38874 -2.15779,0.80244 -2.50178,0.91932 -0.34399,0.1169 -2.18818,0.85963 -4.09809,1.65054 -1.90999,0.7909 -4.7245,1.67511 -6.25447,1.96491 -1.5301,0.28978 -5.5023,1.70318 -8.8273,3.14087 -3.325,1.43768 -6.84313,2.61397 -7.81808,2.61397 -3.1201,0 -1.8986,-2.56558 2.00081,-4.20264 2.07548,-0.87129 3.44557,-1.91161 3.04479,-2.31181 -0.63632,-0.6353 9.43461,-3.96741 45.09386,-14.92004 4.81593,-1.4792 10.1635,-3.24917 11.88348,-3.93329 1.71997,-0.68411 3.81372,-1.38625 4.6527,-1.56031 0.83896,-0.17405 7.59379,-2.13728 15.01071,-4.36275 7.41691,-2.22546 15.73685,-4.53228 18.48881,-5.12626 2.75197,-0.59399 6.41082,-1.38046 8.13081,-1.74771 1.71997,-0.36727 4.81593,-1.17432 6.8799,-1.79347 2.06398,-0.61917 7.41154,-1.98367 11.88348,-3.03225 4.47194,-1.04858 12.74023,-3.24829 18.37387,-4.88824 l 16.52454,-4.39123 c 5.88683,-1.76102 10.54403,-1.85876 9.51716,-0.19975 z"
       id="path4327"
       inkscape:connector-curvature="0"
       sodipodi:nodetypes="ccsscscccscssscssssscscccccscsccssccsssccscsscsscscscssccssaaacsaaaasssscccsssccsccsssssssscccssccssssscsscccc" />
  </g>
</svg>
