<?xml version="1.0" encoding="iso-8859-1"?>
<!-- Generator: Adobe Illustrator 19.0.0, SVG Export Plug-In . SVG Version: 6.00 Build 0)  -->
<svg version="1.1" id="Layer_1" xmlns="http://www.w3.org/2000/svg" xmlns:xlink="http://www.w3.org/1999/xlink" x="0px" y="0px"
	 viewBox="0 0 512 512" style="enable-background:new 0 0 512 512;" xml:space="preserve">
<path style="fill:#854820;" d="M416.882,437l40.479-27.221c10.232-13.232,15.64-29.086,15.64-45.846
	c0-11.859-2.692-23.211-8.003-33.739l-61.664-122.261H231V437H416.882z"/>
<path style="fill:#A26745;" d="M90.649,437H256V207.933H108.667L47.003,330.194C41.692,340.722,39,352.074,39,363.933
	c0,16.76,5.408,32.613,15.64,45.846L90.649,437z"/>
<path style="fill:#4C4645;" d="M104,376.08l30,67.96L104,512H29v-15C29,444.1,59.59,398.21,104,376.08z"/>
<path style="fill:#FFEE54;" d="M164,362l30,75l-30,75h-60V376.08C122.09,367.07,142.46,362,164,362z"/>
<path d="M408,376.08l-30,67.96L408,512h75v-15C483,444.1,452.41,398.21,408,376.08z"/>
<path style="fill:#82CC56;" d="M348,362l-30,75l30,75h60V376.08C389.91,367.07,369.54,362,348,362z"/>
<polygon style="fill:#9EF0FF;" points="348,420 348,512 256,512 226,437 256,362 318,362 "/>
<polygon style="fill:#D1F8FF;" points="256,362 256,512 164,512 164,420 194,362 "/>
<path style="fill:#FF0000;" d="M256,512l-10-15l10-15c34.187,0,62-27.813,62-62v-28l30-30v58C348,470.729,306.729,512,256,512z"/>
<path style="fill:#FF4F4A;" d="M256,512c-50.729,0-92-41.271-92-92v-58l30,30v28c0,34.187,27.813,62,62,62V512z"/>
<path style="fill:#DA0806;" d="M256,454l-10-15l10-15c34.187,0,62-27.813,62-62h30C348,412.729,306.729,454,256,454z"/>
<path style="fill:#FF0000;" d="M256,454c-50.729,0-92-41.271-92-92h30c0,34.187,27.813,62,62,62V454z"/>
<path style="fill:#FFE0D6;" d="M206,35l50,297c77.2,0,140-62.8,140-140v-36.86L206,35z"/>
<path style="fill:#FFF0EB;" d="M116,155.14V192c0,77.2,62.8,140,140,140V95L116,155.14z"/>
<path style="fill:#854820;" d="M396,140v15.14h-80c-33,0-60-27.14-60-60.14V65l132.58,30C393.39,109.13,396,124.27,396,140z"/>
<path style="fill:#A26745;" d="M123.42,95L256,65v30c0,33-27,60.14-60,60.14h-80V140C116,124.27,118.61,109.13,123.42,95z"/>
<path style="fill:#82CC56;" d="M388.58,95H256l-30-47.5L256,0C317.47,0,369.8,39.81,388.58,95z"/>
<path style="fill:#9CE072;" d="M256,0v95H123.42C142.2,39.81,194.53,0,256,0z"/>
<path style="fill:#FC7362;" d="M158.15,162.5c6.08,10.53,5.04,23.22-1.62,32.5c6.66,9.28,7.7,21.97,1.62,32.5
	c-6.09,10.53-17.59,15.98-28.96,14.85c-4.71,10.41-15.17,17.65-27.34,17.65l-34.67-65l34.67-65c12.17,0,22.63,7.24,27.34,17.65
	C140.56,146.52,152.06,151.97,158.15,162.5z"/>
<path style="fill:#F88A6B;" d="M101.85,130v130c-12.16,0-22.62-7.24-27.33-17.65c-11.37,1.13-22.87-4.32-28.96-14.85
	c-6.08-10.53-5.04-23.22,1.62-32.5c-6.66-9.28-7.7-21.97-1.62-32.5c6.09-10.53,17.59-15.98,28.96-14.85
	C79.23,137.24,89.69,130,101.85,130z"/>
<path style="fill:#FF4F4A;" d="M101.855,157.5l-17.5,37.5l17.5,37.5c20.711,0,37.5-16.789,37.5-37.5S122.565,157.5,101.855,157.5z"
	/>
<path style="fill:#FC7362;" d="M64.355,195c0,20.711,16.789,37.5,37.5,37.5v-75C81.144,157.5,64.355,174.289,64.355,195z"/>
<circle style="fill:#FF0000;" cx="101.86" cy="195" r="15"/>
<path style="fill:#FF4F4A;" d="M466.44,162.5c6.08,10.53,5.04,23.22-1.62,32.5c6.66,9.28,7.7,21.97,1.62,32.5
	c-6.09,10.53-17.59,15.98-28.96,14.85c-4.71,10.41-15.17,17.65-27.34,17.65l-34.67-65l34.67-65c12.17,0,22.63,7.24,27.34,17.65
	C448.85,146.52,460.35,151.97,466.44,162.5z"/>
<path style="fill:#FC7362;" d="M410.14,130v130c-12.16,0-22.62-7.24-27.33-17.65c-11.37,1.13-22.87-4.32-28.96-14.85
	c-6.08-10.53-5.04-23.22,1.62-32.5c-6.66-9.28-7.7-21.97-1.62-32.5c6.09-10.53,17.59-15.98,28.96-14.85
	C387.52,137.24,397.98,130,410.14,130z"/>
<path style="fill:#FF0000;" d="M410.145,157.5l-17.5,37.5l17.5,37.5c20.711,0,37.5-16.789,37.5-37.5S430.856,157.5,410.145,157.5z"
	/>
<path style="fill:#FF4F4A;" d="M372.645,195c0,20.711,16.789,37.5,37.5,37.5v-75C389.434,157.5,372.645,174.289,372.645,195z"/>
<circle style="fill:#DA0806;" cx="410.14" cy="195" r="15"/>
<g>
</g>
<g>
</g>
<g>
</g>
<g>
</g>
<g>
</g>
<g>
</g>
<g>
</g>
<g>
</g>
<g>
</g>
<g>
</g>
<g>
</g>
<g>
</g>
<g>
</g>
<g>
</g>
<g>
</g>
</svg>
